<svg xmlns="http://www.w3.org/2000/svg" width="48.819" height="55.887" viewBox="0 0 48.819 55.887">
  <g id="Group_35" data-name="Group 35" transform="translate(-178.007 -258.958)">
    <path id="Path_1030" data-name="Path 1030" d="M189.338,274.225s-.656-13.139,12.1-14.2,12.759,12.05,12.759,12.05l-8.777,14.966S187.692,276.923,189.338,274.225Z" transform="translate(6.306 6)" fill="#1f60ab"/>
    <g id="Group_33" data-name="Group 33" transform="translate(180.089 261.037)">
      <path id="Path_1031" data-name="Path 1031" d="M9.787.054,12.883,0c3.2-.054,5.671,1.814,7.4,4.482a7.584,7.584,0,0,1,1.569,4.362l-.505,29.57a9.442,9.442,0,0,1-9.278,9.151l-3.1.052A8.7,8.7,0,0,1,0,38.775L.509,9.206A9.442,9.442,0,0,1,9.787.054Z" transform="matrix(0.831, 0.557, -0.557, 0.831, 26.5, 0)" fill="none" stroke="#1a1818" stroke-width="3"/>
      <line id="Line_32" data-name="Line 32" x1="18.305" y1="12.432" transform="translate(13.655 20.138)" fill="none" stroke="#1a1818" stroke-miterlimit="10" stroke-width="3"/>
    </g>
  </g>
</svg>
