<svg xmlns="http://www.w3.org/2000/svg" width="37.5" height="43.75" viewBox="0 0 37.5 43.75">
  <g id="Group_59" data-name="Group 59" transform="translate(-289 -120)">
    <path id="Path_1038" data-name="Path 1038" d="M487.648,1528.506h33.471v32.5H487.648Z" transform="translate(-196.359 -1399.886)" fill="#b27f4b"/>
    <rect id="Rectangle_618" data-name="Rectangle 618" width="26" height="29" transform="translate(295 129.25)" fill="#fff"/>
    <path id="Icon_ionic-md-clipboard" data-name="Icon ionic-md-clipboard" d="M37.833,6.937H29.3a6.252,6.252,0,0,0-12.106,0H8.667A4.179,4.179,0,0,0,4.5,11.1V41.833A4.179,4.179,0,0,0,8.667,46H37.833A4.179,4.179,0,0,0,42,41.833V11.1A4.179,4.179,0,0,0,37.833,6.937Zm-14.583,0a2.083,2.083,0,1,1-2.083,2.083A2.09,2.09,0,0,1,23.25,6.937ZM38.094,42.094H8.406V10.844h3.906v7.031H34.187V10.844h3.906Z" transform="translate(284.5 117.75)"/>
  </g>
</svg>
