<svg xmlns="http://www.w3.org/2000/svg" width="59.177" height="59.177" viewBox="0 0 59.177 59.177">
  <g id="Group_114" data-name="Group 114" transform="translate(-50.478 -423.99)">
    <path id="Path_1021" data-name="Path 1021" d="M29.089,0A29.089,29.089,0,1,1,0,29.089,29.089,29.089,0,0,1,29.089,0Z" transform="translate(50.978 424.49)" fill="#42c86a" stroke="#fff" stroke-width="1"/>
    <path id="Icon_awesome-plus" data-name="Icon awesome-plus" d="M29.25,14.625H19.125V4.5a2.25,2.25,0,0,0-2.25-2.25h-2.25a2.25,2.25,0,0,0-2.25,2.25V14.625H2.25A2.25,2.25,0,0,0,0,16.875v2.25a2.25,2.25,0,0,0,2.25,2.25H12.375V31.5a2.25,2.25,0,0,0,2.25,2.25h2.25a2.25,2.25,0,0,0,2.25-2.25V21.375H29.25a2.25,2.25,0,0,0,2.25-2.25v-2.25A2.25,2.25,0,0,0,29.25,14.625Z" transform="translate(64.75 436)" fill="#fff"/>
  </g>
</svg>
