<?xml version="1.0" encoding="utf-8"?>

<!DOCTYPE svg PUBLIC "-//W3C//DTD SVG 1.1//EN" "http://www.w3.org/Graphics/SVG/1.1/DTD/svg11.dtd">
<svg version="1.1" id="Layer_1" xmlns="http://www.w3.org/2000/svg" xmlns:xlink="http://www.w3.org/1999/xlink" x="0px" y="0px"
	 viewBox="0 0 1715.956 1659.196" enable-background="new 0 0 1715.956 1659.196" xml:space="preserve">
<g>
	<path fill="#C6595F" stroke="#C6595F" stroke-width="0.5" d="M931.538,59.432c6.453-0.854,12.905,0.561,19.376,0.276
		c7.476,1.549,15.148,1.762,22.722,2.572c31.32,3.124,62.694,5.607,94.041,8.429c4.085,0.169,7.752,2.038,11.339,3.836
		c9.185,4.165,18.388,8.313,27.502,12.621c9.007,5.153,17.801,10.663,26.763,15.878c5.456,3.444,11.366,6.275,16.421,10.298
		c4.993,5.75,9.319,12.042,14.125,17.952c4.753,6.471,10.164,12.496,14.57,19.207c3.569,12.46,6.07,25.25,9.336,37.808
		c0.507,2.412,2.376,4.112,4.112,5.723c6.159,5.705,12.024,11.713,18.21,17.391c2.465,2.572,5.598,4.744,6.987,8.153
		c6.043,15.344,12.087,30.679,18.103,46.032c1.397,3.658,3.436,7.263,3.204,11.312c-0.231,18.397,0.249,36.821-0.24,55.191
		c-4.637,18.851-10.111,37.497-15.006,56.277c-5.153,13.181-11.98,25.668-17.24,38.805c-3.311,3.845-6.346,7.912-9.621,11.775
		c-1.424,1.664-2.75,3.48-3.24,5.652c-2.857,11.001-5.251,22.135-9.043,32.878c-2.083,5.652-3.222,11.713-6.043,17.053
		c-5.153,6.097-10.752,11.802-16.074,17.756c-2.848,2.866-5.144,6.31-8.455,8.687c1.504-10.431,3.738-20.747,5.545-31.133
		c1.255-7.788,3.311-15.478,3.533-23.408c0.765-12.736,0.854-25.508,1.807-38.236c-0.027-6.221,0.988-12.469,0.036-18.655
		c-1.709-12.941-3.4-25.873-5.073-38.814c-0.427-3.346-0.935-6.702-0.774-10.075c1.059-14.285,3.142-28.499,3.996-42.775
		c-2.528-8.731-6.266-17.089-9.141-25.713c-1.015-2.688-1.656-5.696-3.765-7.779c-9.363-8.74-18.824-17.373-28.089-26.211
		c-1.282-1.175-2.786-2.074-4.388-2.706c-10.057-3.872-20.07-7.859-30.11-11.757c-3.258-1.219-6.417-3.151-10.004-3.017
		c-11.891,0.045-23.782,0.089-35.672-0.009c-6.328-0.276-12.229,2.403-18.299,3.738c-7.601,2.332-15.771,3.284-22.651,7.539
		c-4.45,2.181-8.598,4.993-13.208,6.8c-7.895-5.251-15.193-11.366-22.927-16.866c-3.213-2.145-5.919-5.26-9.773-6.239
		c-13.582-3.631-27.128-7.369-40.71-10.983c-4.877-1.255-9.692-3.142-14.81-2.982c-9.497,0.053-18.993,0.044-28.481,0.009
		c-5.678-0.062-11.241,1.13-16.831,1.94c-9.505,1.433-19.011,2.866-28.499,4.343c-2.27,0.285-3.943,1.949-5.643,3.302
		c-3.551,3.026-7.272,5.83-10.894,8.767c-1.522,1.166-2.626,2.777-3.373,4.521c-3.685,8.206-7.387,16.403-11.108,24.583
		c-1.353,3.053-3.257,6.061-3.213,9.523c-0.116,9.71,0.231,19.438-0.125,29.148c-1.121,9.256-2.092,18.539-2.982,27.822
		c-0.214,4.486-3.204,8.037-5.153,11.882c-8.491,14.623-16.118,29.709-23.764,44.786c-4.717,8.607-5.171,19.091-11.188,27.03
		c-3.685,5.269-7.005,10.778-10.725,16.012c0.623-8.829,2.118-17.578,3.053-26.372c0.311-4.139,1.896-8.473,0.196-12.496
		c-2.528-6.417-4.664-12.994-7.343-19.349c-5.207-0.49-10.671-0.676-15.825,0.107c-4.655,4.245-8.126,9.639-12.834,13.84
		c0.276-10.992-0.819-22.091,1.015-32.993c1.041-7.494,1.611-15.068,3.169-22.473c7.067-27.733,13.849-55.556,20.96-83.271
		c5.331-10.654,12.371-20.417,17.952-30.946c2.323-6.746,3.978-13.715,6.106-20.533c2.581-10.262,7.663-19.616,11.633-29.371
		c2.946-6.195,4.815-13.003,9.096-18.477c7.467-10.351,14.89-20.729,22.304-31.115c2.474-3.409,5.696-6.141,8.678-9.096
		c7.912-7.521,15.798-15.068,23.71-22.598c1.994-1.842,3.783-4.076,6.373-5.118c18.112-7.094,36.162-14.338,54.247-21.485
		c2.456-0.943,5.109-0.997,7.708-1.228C908.611,61.568,920.075,60.438,931.538,59.432z"/>
	<path fill="#FFC6BB" stroke="#FFC6BB" stroke-width="0.5" d="M853.598,223.66c5.589-0.81,11.152-2.003,16.831-1.94
		c9.488,0.036,18.984,0.045,28.481-0.009c5.118-0.16,9.933,1.727,14.81,2.982c13.582,3.614,27.128,7.352,40.71,10.983
		c3.854,0.979,6.56,4.094,9.773,6.239c7.734,5.5,15.033,11.615,22.927,16.866c4.61-1.807,8.758-4.619,13.208-6.8
		c6.88-4.254,15.05-5.207,22.651-7.539c6.07-1.335,11.971-4.014,18.299-3.738c11.891,0.098,23.782,0.053,35.672,0.009
		c3.587-0.133,6.746,1.798,10.004,3.017c10.039,3.898,20.052,7.886,30.11,11.757c1.602,0.632,3.106,1.531,4.388,2.706
		c9.265,8.838,18.726,17.471,28.089,26.211c2.109,2.083,2.75,5.091,3.765,7.779c2.875,8.624,6.613,16.982,9.141,25.713
		c-0.854,14.276-2.937,28.49-3.996,42.775c-0.16,3.373,0.347,6.729,0.774,10.075c1.673,12.941,3.364,25.873,5.073,38.814
		c0.952,6.186-0.062,12.434-0.036,18.655c-0.952,12.727-1.041,25.499-1.807,38.236c-0.223,7.93-2.279,15.62-3.533,23.408
		c-1.807,10.387-4.041,20.702-5.545,31.133c3.311-2.376,5.607-5.821,8.455-8.687c5.322-5.954,10.921-11.659,16.074-17.756
		c2.821-5.34,3.961-11.401,6.043-17.053c3.792-10.743,6.186-21.877,9.043-32.878c0.49-2.172,1.816-3.987,3.24-5.652
		c3.275-3.863,6.31-7.93,9.621-11.775c3.275,0.231,6.577,0.205,9.861,0.427c0.757,4.619,0.178,9.319,0.329,13.973
		c-0.151,7.245,0.507,14.552-0.748,21.734c-1.522,9.043-2.661,18.139-4.103,27.19c-0.632,3.765-0.454,8.001-3.106,11.072
		c-4.379,5.456-8.268,11.286-12.567,16.813c-2.706,3.462-4.886,7.734-9.15,9.506c-10.271,4.797-20.435,9.781-30.599,14.792
		c-2.821,1.486-6.444,2.243-7.957,5.367c-5.572,9.55-12.3,18.433-16.946,28.508c-8.081,15.905-16.261,31.765-24.44,47.617
		c-7.797,16.261-17.827,31.32-26.63,47.02c0.098,0.854,0.223,1.709,0.374,2.572c-0.116,3.987,0.374,7.939,0.756,11.9
		c0.214,6.746,0.854,13.466,1.193,20.204c0.107,1.184-0.739,2.154-1.291,3.124c-9.612,13.511-19.305,26.977-28.819,40.559
		c-2.724,4.094-6.942,6.764-10.636,9.879c-13.84,11.375-27.733,22.687-41.609,34.017c-12.665,9.301-25.535,18.335-38.245,27.582
		c-4.619,3.124-8.82,6.996-14.062,9.078c-8.162,3.382-16.305,6.818-24.44,10.271c-6.025,2.296-11.757,5.367-17.898,7.307
		c-4.432,0.062-8.66-1.727-12.994-2.439c-5.99-1.424-11.935-2.982-17.97-4.192c-2.287-0.605-4.815-0.792-6.773-2.225
		c-13.778-11.998-26.923-24.761-41.226-36.153c-12.345-10.226-24.814-20.293-37.141-30.528c-2.75-2.27-5.758-4.308-7.877-7.227
		c-7.04-9.541-14.356-18.878-21.45-28.383c-2.27-3.133-5.207-5.972-6.195-9.826c-2.777-10.218-5.759-20.382-8.571-30.59
		c-0.454-1.62-1.175-3.133-1.869-4.628c-0.187-3.124-0.196-6.266,0.231-9.363c0.863-4.183,0.543-8.473,0.65-12.71
		c0.036-6.791,0.872-13.609-0.258-20.355c0.659-7.432,2.804-14.694,3.373-22.135c-3.792-4.94-9.381-8.242-12.914-13.395
		c-1.647-4.512-2.011-9.381-3.017-14.054c-1.255-7.814-3.694-15.531-3.329-23.515c0.258-13.359,0.107-26.719,0.418-40.078
		c0.863-8.722,2.715-17.32,3.996-25.989c0.071-1.255,0.338-2.581-0.151-3.765c-4.326-2.643-9.167-4.37-13.43-7.12
		c-1.424-0.881-1.664-2.679-2.225-4.103c-2.643-8.82-5.776-17.471-8.349-26.309c-1.638-6.266-4.495-12.398-4.076-19.011
		c0.223-19.501-0.178-39.01,0.196-58.502c4.708-4.201,8.179-9.595,12.834-13.84c5.153-0.783,10.618-0.596,15.825-0.107
		c2.679,6.355,4.815,12.932,7.343,19.349c1.7,4.023,0.116,8.357-0.196,12.496c-0.935,8.793-2.43,17.542-3.053,26.372
		c3.72-5.233,7.04-10.743,10.725-16.012c6.017-7.939,6.471-18.424,11.188-27.03c7.645-15.077,15.273-30.163,23.764-44.786
		c1.949-3.845,4.94-7.396,5.153-11.882c0.89-9.283,1.86-18.566,2.982-27.822c0.356-9.71,0.009-19.438,0.125-29.148
		c-0.044-3.462,1.86-6.471,3.213-9.523c3.72-8.179,7.423-16.377,11.108-24.583c0.748-1.744,1.851-3.355,3.373-4.521
		c3.622-2.937,7.343-5.741,10.894-8.767c1.7-1.353,3.373-3.017,5.643-3.302C834.587,226.526,844.093,225.093,853.598,223.66
		 M771.644,662.507c-0.294,2.643,1.531,4.717,2.652,6.924c3.275,5.892,5.625,12.38,10.057,17.551
		c7.343,9.63,13.991,19.759,21.379,29.362c5.785,5.536,12.478,10.039,18.611,15.202c2.465,2.065,5.091,4.032,8.153,5.135
		c7.583,2.759,15.122,5.643,22.696,8.429c8.144,2.706,15.923,6.515,24.271,8.615c3.667,0.516,7.405,0.089,11.081,0.641
		c5.607,0.801,11.294,0.169,16.911,0.899c5.91,0.783,11.891,0.125,17.801,0.881c5.42,0.49,11.001,1.015,16.323-0.454
		c9.408-2.572,18.984-4.504,28.347-7.227c3.16-0.943,6.631-1.148,9.434-3.035c12.113-7.797,24.476-15.184,36.518-23.105
		c1.228-0.774,2.412-1.691,3.124-3.008c-4.53,1.388-8.544,4.032-12.994,5.643c-9.514,4.842-19.198,9.354-28.872,13.831
		c-12.612,3.16-25.473,5.242-38.129,8.242c-3.836,0.863-7.752-0.214-11.624,0c-9.532,0.16-18.993-1.077-28.517-1.068
		c-8.188-0.881-16.234-2.723-24.369-3.987c-6.043-0.943-10.137-5.892-15.015-9.087c-12.371-9.675-25.526-18.29-38.076-27.724
		c-2.003-1.228-4.085-2.448-5.411-4.441c-3.818-5.331-9.292-9.167-13.146-14.472c-6.204-7.948-15.389-12.505-23.221-18.575
		C777.082,665.783,774.635,663.646,771.644,662.507z"/>
	<path fill="#2D3E50" stroke="#2D3E50" stroke-width="0.5" d="M741.348,651.827c0.587-0.534,1.246-0.997,1.958-1.371
		c0.472,10.547-0.08,21.129-0.009,31.694c-0.427,3.097-0.418,6.239-0.231,9.363c-0.587-1.023-0.57-2.225-0.543-3.338
		c0.196-10.698,0.018-21.396,0.098-32.094C742.745,654.524,742.122,653.109,741.348,651.827z"/>
	<path fill="#297FB8" stroke="#297FB8" stroke-width="0.5" d="M713.285,681.394c9.443-9.764,18.495-19.919,28.063-29.567
		c0.774,1.282,1.397,2.697,1.273,4.254c-0.08,10.698,0.098,21.396-0.098,32.094c-0.027,1.113-0.044,2.314,0.543,3.338
		c0.694,1.495,1.415,3.008,1.869,4.628c2.812,10.209,5.794,20.373,8.571,30.59c0.988,3.854,3.925,6.693,6.195,9.826
		c7.094,9.506,14.41,18.842,21.45,28.383c2.118,2.919,5.127,4.957,7.877,7.227c12.327,10.235,24.796,20.302,37.141,30.528
		c14.303,11.392,27.448,24.155,41.226,36.153c1.958,1.433,4.486,1.62,6.773,2.225c6.034,1.21,11.98,2.768,17.97,4.192
		c4.334,0.712,8.562,2.501,12.994,2.439c6.141-1.94,11.873-5.011,17.898-7.307c8.135-3.453,16.279-6.889,24.44-10.271
		c5.242-2.083,9.443-5.954,14.062-9.078c12.71-9.247,25.579-18.281,38.245-27.582c13.876-11.33,27.769-22.642,41.609-34.017
		c3.694-3.115,7.912-5.785,10.636-9.879c9.514-13.582,19.207-27.048,28.819-40.559c0.552-0.97,1.397-1.94,1.291-3.124
		c-0.338-6.738-0.979-13.457-1.193-20.204c0.267-1.985,0.667-3.952,1.326-5.839c2.839,4.601,3.578,10.111,5.741,15.024
		c1.922,5.972,5.251,11.731,5.055,18.174c-0.134,22.856,0.098,45.721-0.125,68.577c-0.908,7.993-3.382,15.718-4.877,23.621
		c-2.19,10.538-5.18,20.933-6.604,31.623c-1.353,4.245-2.118,8.633-2.804,13.03c-5.732,27.929-10.12,56.134-15.798,84.081
		c-4.61,17.391-8.785,34.96-13.698,52.245c-1.744,0.062-3.017-1.842-4.53-2.581c1.317,2.457,4.744,4.459,3.453,7.636
		c-7.788,29.416-15.139,58.947-22.963,88.344c-9.363,25.348-18.895,50.634-28,76.08c-2.804,7.939-6.479,15.638-8.224,23.897
		c-2.688,7.77-5.874,15.371-8.918,23.025c-7.539,20.533-15.237,41.021-23.052,61.457c-0.027-1.157-0.062-2.287-0.107-3.4
		c0.107-23.817,0.142-47.652-0.053-71.478c-2.163-23.025-4.219-46.077-6.613-69.084c-3.569-18.904-8.188-37.595-12.042-56.437
		c-1.21-5.127-1.762-10.538-4.361-15.202c-6.595-12.149-13.039-24.378-19.599-36.536c-0.08-0.57-0.24-1.709-0.311-2.278
		c0.071-17.596-0.739-35.183-0.668-52.788c0.044-1.762-0.009-3.649,1.015-5.153c9.577-14.757,19.127-29.54,28.632-44.35
		c1.86-2.714,3.872-5.367,5.135-8.429c0.57-1.095,1.13-2.189,1.709-3.266l0.623,0.409c17.623,17.008,35.797,33.43,53.589,50.251
		c5.011,4.13,9.319,9.025,14.258,13.244c5.972,5.296,11.57,11.01,17.578,16.288c2.786,2.341,4.877,5.732,8.429,7.031
		c-0.863-2.323-2.679-4.041-4.352-5.758c-12.905-13.546-27.359-25.464-40.612-38.645c-16.118-14.917-31.249-30.875-47.483-45.65
		c-10.022-7.307-20.186-14.427-30.252-21.672c-2.305-1.62-4.406-3.987-7.387-4.165c-5.981-0.436-11.846-1.78-17.827-2.163
		c-6.889-0.712-14.018-3.186-20.836-0.819c-5.883,2.092-11.677,4.441-17.623,6.328c-5.954,1.744-10.618,5.99-15.905,9.016
		c-4.53,2.59-8.847,5.536-13.244,8.349c-13.422,8.758-27.511,16.537-40.22,26.327c-14.801,10.716-29.7,21.307-44.368,32.219
		c-3.053,2.35-6.551,4.201-9.025,7.236c5.963-2.759,11.25-6.755,16.875-10.138c20.293-12.888,40.514-25.873,60.745-38.85
		c5.945-3.453,11.366-7.815,17.605-10.76c0.24,2.305,0.392,4.628,0.454,6.96c0.374-0.81,0.766-1.62,1.157-2.412
		c-0.107,4.174,0.543,8.304,1.388,12.389c0.908,4.13-0.498,8.233-0.667,12.362c-0.151,9.007-0.365,18.077-1.086,27.039
		c-4.423,5.91-6.835,13.021-11.25,18.949c-2.768,3.605-4.53,7.832-7.12,11.561c-2.528,3.587-3.88,7.841-6.408,11.446
		c-7.298,10.209-11.918,22.055-19.51,32.086c-2.643,3.204-3.925,7.245-6.293,10.636c-2.759,4.094-5.945,7.921-8.135,12.389
		c-1.38,2.848-3.676,5.1-5.376,7.743c-1.736,2.919-0.739,6.533-1.762,9.639c-1.878,3.24-0.81,7.209-2.083,10.654
		c-0.988,2.759-1.166,5.696-1.059,8.615c-0.427-0.356-0.854-0.694-1.273-1.015c-0.151,3.587-0.445,7.174-0.507,10.778
		c-0.436-0.338-0.854-0.659-1.273-0.979c-0.133,3.685-0.472,7.361-0.578,11.054c-0.383-0.828-0.765-1.629-1.13-2.421
		c-0.214,2.118,0.311,4.575-1.086,6.399c-1.388,1.843-0.997,4.281-1.255,6.453c-0.409-0.338-0.819-0.667-1.21-0.979
		c-0.427,4.317-2.403,8.251-3.409,12.443c-0.899,2.75-1.166,6.079-3.783,7.841c-8.535-36.696-16.911-73.419-25.482-110.106
		c-0.676-8.42-0.703-16.902-1.727-25.304c-1.246-21.913-2.634-43.825-4.432-65.702c-1.362-23.853-3.311-47.67-4.619-71.541
		c0.036-58.422,0.044-116.843,0-175.274C710.731,683.752,712.315,682.64,713.285,681.394z"/>
	<path fill="#FEB1A4" stroke="#FEB1A4" stroke-width="0.5" d="M771.644,662.507c2.991,1.139,5.438,3.275,7.984,5.171
		c7.832,6.07,17.017,10.627,23.221,18.575c3.854,5.305,9.328,9.141,13.146,14.472c1.326,1.994,3.409,3.213,5.411,4.441
		c12.549,9.434,25.704,18.05,38.076,27.724c4.877,3.195,8.971,8.144,15.015,9.087c8.135,1.264,16.181,3.106,24.369,3.987
		c9.523-0.009,18.984,1.228,28.517,1.068c3.872-0.214,7.788,0.863,11.624,0c12.656-2.999,25.517-5.082,38.129-8.242
		c9.675-4.477,19.358-8.989,28.872-13.831c4.45-1.611,8.464-4.254,12.994-5.643c-0.712,1.317-1.896,2.234-3.124,3.008
		c-12.042,7.921-24.405,15.309-36.518,23.105c-2.804,1.887-6.275,2.092-9.434,3.035c-9.363,2.724-18.94,4.655-28.347,7.227
		c-5.322,1.469-10.903,0.943-16.323,0.454c-5.91-0.756-11.891-0.098-17.801-0.881c-5.616-0.73-11.303-0.098-16.911-0.899
		c-3.676-0.552-7.414-0.125-11.081-0.641c-8.348-2.1-16.127-5.91-24.271-8.615c-7.574-2.786-15.113-5.669-22.696-8.429
		c-3.062-1.104-5.687-3.071-8.153-5.135c-6.132-5.162-12.825-9.666-18.611-15.202c-7.387-9.604-14.036-19.732-21.379-29.362
		c-4.432-5.171-6.782-11.659-10.057-17.551C773.175,667.224,771.351,665.151,771.644,662.507z"/>
	<path fill="#1F2B39" stroke="#1F2B39" stroke-width="0.5" d="M1079.808,671.212c12.015,10.752,23.746,21.815,35.646,32.682
		c2.848,2.51,5.349,5.572,8.847,7.227c27.466,12.185,54.977,24.271,82.426,36.509c-0.623,1.922-0.089,3.863,0.801,5.607
		c7.449,16.038,16.154,31.445,23.879,47.35c3.355,8.064,7.761,15.638,11.143,23.702c4.281,9.176,9.23,18.068,12.95,27.493
		c-1.745,2.225-4.539,3.151-6.942,4.459c-12.914,6.729-26.016,13.119-39.01,19.705c-1.718,0.65-2.581,2.439-1.46,4.058
		c9.683,17.017,19.411,34.044,28.962,51.141c1.273,1.673-0.409,3.462-1.175,4.949c-8.438,12.63-16.795,25.321-25.286,37.915
		c-8.268,12.55-16.991,24.814-24.378,37.915c-18.228,30.43-36.5,60.825-54.737,91.246c-9.141,14.917-17.783,30.136-27.093,44.955
		c-7.814,13.484-16.021,26.745-24.013,40.131c-9.114,15.068-17.32,30.644-26.194,45.854c-7.903,15.077-16.67,29.683-24.858,44.608
		c-23.479,42.063-47.065,84.054-70.633,126.055c-15.273,21.797-30.715,43.478-45.988,65.275c-4.94,6.132-8.811,13.03-13.671,19.234
		c-13.635,19.314-27.333,38.565-40.915,57.905c-21.129,33.501-41.751,67.322-62.916,100.796c-1.513,2.359-2.679,5.047-4.949,6.818
		c1.842-7.975,5.411-15.451,8.17-23.141c6.319-15.762,12.042-31.765,18.335-47.537c5.847-15.344,11.437-30.786,17.756-45.934
		c0.445-1.201,0.881-2.376,1.308-3.542c4.53-7.69,7.512-16.145,11.508-24.102c13.475-29.487,27.039-58.92,40.763-88.291
		c3.409-7.619,7.352-15.006,10.307-22.811c6.097-13.342,11.579-26.959,17.64-40.309c7.387-16.368,14.214-32.984,21.468-49.414
		c3.818-10.013,9.007-19.501,12.211-29.736c2.51-5.251,4.922-10.556,7.209-15.905c7.814-20.435,15.513-40.924,23.052-61.457
		c3.044-7.654,6.23-15.255,8.918-23.025c4.041-8.224,6.435-17.124,10.075-25.517c10.28-24.164,20.569-48.329,30.884-72.484
		c2.884-6.292,4.067-13.155,6.043-19.75c5.296-19.109,10.449-38.253,15.647-57.38c6.008-22.153,11.161-44.51,16.759-66.77
		c2.198-8.197,2.394-16.724,3.587-25.09c2.011-20.934,5.171-41.742,6.764-62.711c0.685-4.397,1.451-8.785,2.804-13.03
		c2.795-5.856,4.477-12.149,6.666-18.237c3.578-10.618,7.316-21.192,10.876-31.819c1.433-4.272,0.881-8.829,0.943-13.235
		c-0.009-18.103-0.027-36.198,0-54.292c-0.071-3.97,0.623-8.233-1.388-11.855c-3.89-7.654-7.957-15.202-11.828-22.856
		c-2.136-3.622-3.525-7.761-6.542-10.787C1080.031,672.921,1079.906,672.066,1079.808,671.212z"/>
	<path fill="#1D5A81" stroke="#1D5A81" stroke-width="0.5" d="M1080.182,673.784c3.017,3.026,4.406,7.165,6.542,10.787
		c3.872,7.654,7.939,15.202,11.828,22.856c2.011,3.622,1.317,7.886,1.388,11.855c-0.027,18.094-0.009,36.189,0,54.292
		c-0.062,4.406,0.49,8.963-0.943,13.235c-3.56,10.627-7.298,21.201-10.876,31.819c-2.189,6.088-3.872,12.38-6.666,18.237
		c1.424-10.689,4.415-21.085,6.604-31.623c1.495-7.904,3.969-15.629,4.877-23.621c0.223-22.856-0.009-45.721,0.125-68.577
		c0.196-6.444-3.133-12.202-5.055-18.174c-2.163-4.913-2.901-10.422-5.741-15.024c-0.659,1.887-1.059,3.854-1.326,5.839
		C1080.556,681.723,1080.066,677.771,1080.182,673.784z"/>
	<path fill="#1F2B39" stroke="#1F2B39" stroke-width="0.5" d="M702.177,688.069c2.715-1.139,5.367-2.545,8.286-3.115
		c0.383,58.591-0.116,117.199,0.249,175.781c1.308,23.871,3.258,47.688,4.619,71.541c1.798,21.877,3.186,43.789,4.432,65.702
		c1.024,8.402,1.05,16.884,1.727,25.304c8.571,36.687,16.946,73.41,25.482,110.106c8.927,38.076,18.032,76.115,26.932,114.209
		c18.183,75.225,34.898,150.798,52.174,226.246c2.483,11.099,5.242,22.144,7.503,33.287c0.525,10.253-0.205,20.551,0.276,30.822
		c-2.172-0.498-3.142-2.697-4.414-4.272c-9.176-12.487-18.246-25.054-27.449-37.515c-3.035-4.637-6.862-8.731-9.506-13.618
		c-7.761-14.356-16.563-28.116-24.262-42.499c-16.083-27.315-31.641-54.942-47.563-82.354
		c-13.769-24.173-27.956-48.106-41.591-72.351c-3.614-6.657-6.479-13.662-9.701-20.497
		c-22.865-50.678-45.979-101.232-68.924-151.866c-7.031-15.504-13.965-31.044-21.192-46.451c-3.444-7.281-5.794-14.988-8.589-22.518
		c-20.426-58.457-41.004-116.87-61.519-175.3c-0.347-1.299-0.97-2.626-0.676-3.978c23.951-11.152,48.151-21.779,72.101-32.949
		c3.863-1.816,8.019-3.115,11.481-5.678c-2.287-3.169-5.714-5.162-8.713-7.556c-11.161-8.705-22.206-17.543-33.376-26.22
		c-1.273-0.988-2.554-2.011-3.373-3.4c14.685-8.838,29.665-17.204,44.359-26.033c9.897-7.539,19.189-15.86,29.051-23.461
		c12.834-10.796,26.211-20.96,38.992-31.819c-0.071-0.418-0.231-1.273-0.303-1.691c2.207-0.641,4.397-1.362,6.524-2.252
		C677.532,698.464,689.859,693.276,702.177,688.069z"/>
	<path fill="#2D3E50" stroke="#2D3E50" stroke-width="0.5" d="M588.289,725.575c23.488-6.488,46.896-13.244,70.401-19.652
		c0.071,0.418,0.231,1.273,0.303,1.691c-12.781,10.858-26.158,21.022-38.992,31.819c-9.862,7.601-19.153,15.923-29.051,23.461
		c-14.694,8.829-29.674,17.195-44.359,26.033c0.819,1.388,2.1,2.412,3.373,3.4c11.17,8.678,22.215,17.516,33.376,26.22
		c2.999,2.394,6.426,4.388,8.713,7.556c-3.462,2.563-7.619,3.863-11.481,5.678c-23.951,11.17-48.151,21.797-72.101,32.949
		c-0.294,1.353,0.329,2.679,0.676,3.978c20.515,58.43,41.093,116.843,61.519,175.3c2.795,7.53,5.144,15.237,8.589,22.518
		c7.227,15.406,14.16,30.946,21.192,46.451c22.945,50.634,46.059,101.188,68.924,151.866c3.222,6.835,6.088,13.84,9.701,20.497
		c13.635,24.244,27.822,48.177,41.591,72.351c15.923,27.413,31.48,55.039,47.563,82.354c7.699,14.383,16.501,28.143,24.262,42.499
		c2.643,4.886,6.471,8.98,9.506,13.618c9.203,12.46,18.272,25.028,27.449,37.515c1.273,1.575,2.243,3.774,4.414,4.272l0.65,0.24
		c-6.319,15.148-11.909,30.59-17.756,45.934c-6.293,15.771-12.015,31.774-18.335,47.537c-2.759,7.69-6.328,15.166-8.17,23.141
		c2.27-1.771,3.436-4.459,4.949-6.818c21.165-33.474,41.787-67.295,62.916-100.796c13.582-19.34,27.279-38.592,40.915-57.905
		c4.86-6.203,8.731-13.101,13.671-19.234c15.273-21.797,30.715-43.478,45.988-65.275c23.568-42,47.154-83.992,70.633-126.055
		c8.188-14.926,16.955-29.531,24.858-44.608c8.874-15.211,17.08-30.786,26.194-45.854c7.993-13.386,16.199-26.648,24.013-40.131
		c9.31-14.819,17.952-30.039,27.093-44.955c18.237-30.421,36.509-60.816,54.737-91.246c7.387-13.101,16.11-25.366,24.378-37.915
		c8.491-12.594,16.848-25.286,25.286-37.915c0.765-1.486,2.448-3.275,1.175-4.949c-9.55-17.098-19.278-34.124-28.962-51.141
		c-1.121-1.62-0.258-3.409,1.46-4.058c12.995-6.586,26.096-12.977,39.01-19.705c2.403-1.308,5.198-2.234,6.942-4.459
		c-3.72-9.425-8.669-18.317-12.95-27.493c-3.382-8.064-7.788-15.638-11.143-23.702c-7.725-15.905-16.43-31.311-23.879-47.35
		c-0.89-1.744-1.424-3.685-0.801-5.607c63.735,26.122,127.265,52.752,190.965,78.972c52.369,20.017,104.721,40.087,157.099,60.077
		c2.786,0.89,3.969,3.783,5.563,5.99c6.177,9.247,12.371,18.495,18.628,27.698c1.522,2.385,4.148,4.744,3.222,7.877
		c-3.587,20.711-7.236,41.413-10.858,62.115c-0.427,2.741-1.362,5.589-0.481,8.349c10.048,33.928,19.883,67.918,29.949,101.837
		c6.657,19.403,13.386,38.779,20.07,58.163c1.727,5.162,3.881,10.209,4.984,15.567c7.912,38.912,15.949,77.806,23.826,116.727
		c1.922,17.988,3.053,36.055,4.619,54.078c1.113,13.618,2.439,27.217,3.266,40.861c0,50.109,0.08,100.235-0.036,150.344
		c-2.59,40.977-6.008,81.892-8.598,122.869h-292.953c3.231-12.167,7.111-24.147,10.458-36.269c1.024-4.735,0.463-9.612,0.712-14.401
		c0.383,0.142,1.157,0.427,1.549,0.561c0.178-10.591,0.249-21.174,0.392-31.765c-0.045-2.821,0.516-5.848-1.032-8.357
		c-0.312-6.061-0.214-12.193,1.077-18.148c3.346-18.53,6.64-37.079,9.968-55.618c0.828-5.848,2.706-11.624,2.181-17.578
		c-0.89-13.172-1.54-26.345-2.572-39.5c-1.379-20.097-2.127-40.256-3.934-60.317c-3.462,13.146-5.865,26.585-8.945,39.847
		c-6.248,28.517-12.46,57.033-18.664,85.568c-1.469,7.485-3.792,14.846-4.245,22.509c-2.136,19.821-4.067,39.66-6.346,59.472
		c-0.463,3.863-0.481,7.832-1.709,11.579c-7.147,20.791-14.418,41.556-21.379,62.418H400.52
		c-0.053-22.634,0.125-45.276-0.116-67.909c0.214-26.309,0.027-52.636,0.089-78.946c-0.134-5.963,0.347-11.944-0.285-17.881
		c0.427-3.854-0.196-7.69-0.694-11.49c-2.172-20.213-4.637-40.39-6.818-60.593c-1.291-10.316-2.02-20.693-2.109-31.08
		c-0.73-13.956-1.655-27.902-1.914-41.876c-0.81-8.268-0.365-16.626-1.655-24.85c-3.373-22.74-6.8-45.463-10.084-68.212
		c-1.397-8.464-4.334-16.563-6.212-24.912c-3.32-11.392-6.195-22.909-9.265-34.373c-1.549-4.958-2.43-10.155-4.504-14.926
		c1.842,19.83,5.055,39.508,7.485,59.276c0.605,5.848,2.1,11.659,1.762,17.587c-1.566,17.703-2.999,35.423-4.637,53.135
		c-0.614,5.661,0.979,11.214,1.602,16.813c1.477,10.672,3.516,21.281,4.21,32.05c1.246,14.792,2.67,29.576,4.05,44.359
		c2.35,18.139,4.432,36.313,6.791,54.461c2.056,11.953,3.881,23.951,5.91,35.922c1.095,8.001-0.917,16.047,0,24.058
		c-0.605,22.402,0.036,44.831-0.312,67.251c-2.439,24.049-5.305,48.07-7.672,72.137H57.066c0.783-3.765,1.264-7.574,1.922-11.339
		c2.608-11.775,1.095-23.888,1.486-35.833c-0.703-10.253,2.172-20.204,3.525-30.279c0.543-2.305,0.347-5.055,2.127-6.827
		c7.895-8.108,16.207-15.851,23.906-24.129c0.863-6.835,0.552-13.804,1.077-20.675c0.579-7.53,0-15.193,1.709-22.598
		c2.189-10.876,4.263-21.77,6.506-32.637c0.917-6.604,4.263-12.452,6.56-18.611c7.396-17.934,14.766-35.886,21.654-54.025
		c1.104-3.364,3.302-6.577,2.919-10.253c-0.943-11.481-1.371-22.99-2.332-34.471c-0.107-2.492-0.712-5.189,0.694-7.423
		c6.488-12.478,12.879-25.001,19.394-37.452c1.246-2.305,1.362-4.966,1.727-7.485c1.46-10.538,2.91-21.067,4.45-31.587
		c0.739-4.851,2.643-9.399,3.996-14.08c3.676-11.437,7.174-22.936,10.974-34.328c1.673-5.758,4.165-11.312,5.34-17.186
		c-3.231-11.437-7.672-22.527-10.787-33.99c1.994-11.998,4.957-23.87,7.272-35.824c0.917-5.669,3.489-10.823,5.42-16.172
		c4.352-11.357,8.74-22.696,13.057-34.07c1.949-6.097,3.079-12.416,4.628-18.611c3.56-14.579,7.049-29.175,10.565-43.754
		c1.762-6.818,2.964-13.822,5.224-20.479c9.657-12.505,20.088-24.449,29.736-36.963c0.614-3.382,0.303-6.862,0.49-10.271
		c0.392-13.849,0.694-27.698,1.104-41.547c0.757-1.139,1.549-2.341,1.433-3.765c0.169-5.972,0.231-11.944,0.374-17.907
		c0.116-1.646-0.276-3.231-0.997-4.682c1.451-5.607,3.614-10.992,5.305-16.528c3.106-8.874,5.625-17.952,8.971-26.728
		c4.637-7.681,9.87-14.988,14.65-22.58c0.979-1.362,1.771-3.177,3.578-3.569c12.772-4.05,25.41-8.553,38.236-12.443
		c12.505-2.501,25.099-4.521,37.639-6.88c9.167-1.762,18.486-2.848,27.475-5.429c17.623-4.655,35.272-9.194,52.868-13.902
		c23.515-7.583,46.922-15.522,70.41-23.185c9.247-2.857,18.157-6.64,27.164-10.146c12.523-5.011,25.081-9.942,37.639-14.89
		C573.479,730.808,580.644,727.479,588.289,725.575z"/>
	<path fill="#1D5980" stroke="#1D5980" stroke-width="0.5" d="M1062.853,933.975c5.678-27.947,10.066-56.152,15.798-84.081
		c-1.593,20.969-4.753,41.778-6.764,62.711c-1.193,8.366-1.388,16.893-3.587,25.09c-5.598,22.26-10.751,44.617-16.759,66.77
		c-5.198,19.127-10.351,38.271-15.647,57.38c-1.976,6.595-3.16,13.457-6.043,19.75c-10.315,24.155-20.604,48.32-30.884,72.484
		c-3.64,8.393-6.034,17.293-10.075,25.517c1.744-8.259,5.42-15.958,8.224-23.897c9.105-25.446,18.637-50.732,28-76.08
		c7.823-29.398,15.175-58.929,22.963-88.344c1.291-3.177-2.136-5.18-3.453-7.636c1.513,0.739,2.786,2.643,4.53,2.581
		C1054.068,968.936,1058.243,951.366,1062.853,933.975z"/>
	<path fill="#922B35" stroke="#922B35" stroke-width="0.5" d="M875.386,864.028c6.818-2.367,13.947,0.107,20.836,0.819
		c5.981,0.383,11.846,1.727,17.827,2.163c2.982,0.178,5.082,2.545,7.387,4.165c10.066,7.245,20.23,14.365,30.252,21.672
		c-0.472,1.077-0.943,2.154-1.406,3.24l-0.623-0.409c-8.197-5.794-16.368-11.615-24.485-17.516
		c-3.631-2.403-6.924-5.839-11.455-6.364c-5.767-0.979-11.615-1.326-17.391-2.243c-5.438-0.739-11.099-2.038-16.448-0.089
		c-8.055,2.626-17.151,2.626-24.244,7.708c-8.473,5.34-16.804,10.894-25.473,15.914c-0.543-1.789-1.095-3.569-1.549-5.367
		c4.397-2.813,8.713-5.758,13.244-8.349c5.287-3.026,9.951-7.272,15.905-9.016C863.709,868.469,869.503,866.119,875.386,864.028z"/>
	<path fill="#D13F4A" stroke="#D13F4A" stroke-width="0.5" d="M879.881,869.466c5.349-1.949,11.01-0.65,16.448,0.089
		c5.776,0.917,11.624,1.264,17.391,2.243c4.53,0.525,7.823,3.961,11.455,6.364c8.117,5.901,16.288,11.722,24.485,17.516
		c-0.579,1.077-1.139,2.172-1.709,3.266c-2.964,2.474-5.358,5.509-7.619,8.616c-4.352,5.963-10.004,10.858-14.169,16.973
		c-4.815,7.076-9.488,14.249-14.347,21.29c-1.139,1.78-2.964,3.435-2.839,5.732c0,10.698,0.053,21.405-0.009,32.112
		c-0.044,5.767,2.634,11.099,3.044,16.813c0.231,3.115,0.623,6.257,1.825,9.185c0.071,0.57,0.231,1.709,0.311,2.278
		c-0.578,6.889,4.183,12.291,6.622,18.326c4.005,9.319,9.977,17.943,11.873,28.063c2.412,10.111,4.628,20.275,6.88,30.43
		c3.16,23.951,6.088,47.919,9.114,71.888c1.362,6.996,0.739,14.223,2.332,21.183c0.454,2.278,0.579,4.619,0.721,6.951
		c-0.837,3.952-0.498,8.001-0.587,12.024c-0.694,12.167-0.498,24.378,0.053,36.553c-0.009,1.255,0.276,2.492,0.748,3.685
		c0.721-8.945-0.089-17.943,0.178-26.906c-0.151-8.242,0.392-16.483,0.098-24.716c0.142,0.258,0.436,0.756,0.579,1.015
		c0.338,17.089-0.231,34.222,0.267,51.31c1.157,6.31,1.611,12.852,3.791,18.931c0.045,1.113,0.08,2.243,0.107,3.4
		c-2.287,5.349-4.699,10.654-7.209,15.905c-3.525,5.616-6.123,11.757-9.007,17.721c-23.559,48.587-46.798,97.316-70.446,145.849
		c-3.667,8.153-7.823,16.074-11.508,24.218c-3.533,7.779-8.286,15.095-10.324,23.479c-2.225,8.01-5.02,15.86-7.191,23.897
		c-1.833,6.488-4.326,12.816-5.42,19.501c-0.427,1.166-0.863,2.341-1.308,3.542l-0.65-0.24c-0.481-10.271,0.249-20.569-0.276-30.822
		c-2.261-11.143-5.02-22.188-7.503-33.287c-17.275-75.448-33.99-151.02-52.174-226.246c-8.9-38.093-18.005-76.133-26.932-114.209
		c2.617-1.762,2.884-5.091,3.783-7.841c1.006-4.192,2.982-8.126,3.409-12.443c0.392,0.312,0.801,0.641,1.21,0.979
		c0.258-2.172-0.133-4.61,1.255-6.453c1.397-1.824,0.872-4.281,1.086-6.399c0.365,0.792,0.748,1.593,1.13,2.421
		c0.107-3.694,0.445-7.369,0.578-11.054c0.418,0.321,0.837,0.641,1.273,0.979c0.062-3.605,0.356-7.192,0.507-10.778
		c0.418,0.32,0.846,0.659,1.273,1.015c-0.107-2.919,0.071-5.856,1.059-8.615c1.273-3.444,0.205-7.414,2.083-10.654
		c1.024-3.106,0.027-6.72,1.762-9.639c1.7-2.643,3.996-4.895,5.376-7.743c2.189-4.468,5.376-8.295,8.135-12.389
		c2.368-3.391,3.649-7.432,6.293-10.636c7.592-10.031,12.211-21.877,19.51-32.086c2.528-3.605,3.88-7.859,6.408-11.446
		c2.59-3.729,4.352-7.957,7.12-11.561c4.415-5.928,6.827-13.039,11.25-18.949c0.721-8.963,0.935-18.032,1.086-27.039
		c0.169-4.13,1.575-8.233,0.667-12.362c-0.846-4.085-1.495-8.215-1.388-12.389c-0.392,0.792-0.783,1.602-1.157,2.412
		c-0.062-2.332-0.214-4.655-0.454-6.96l-0.062-0.668c8.669-5.02,17-10.574,25.473-15.914
		C862.73,872.091,871.826,872.091,879.881,869.466z"/>
	<path fill="#1B5981" stroke="#1B5981" stroke-width="0.5" d="M788.395,914.047c12.71-9.79,26.799-17.569,40.22-26.327
		c0.454,1.798,1.006,3.578,1.549,5.367l0.062,0.668c-6.239,2.946-11.659,7.307-17.605,10.76
		c-20.23,12.977-40.452,25.962-60.745,38.85c-5.625,3.382-10.912,7.378-16.875,10.138c2.474-3.035,5.972-4.886,9.025-7.236
		C758.694,935.355,773.593,924.763,788.395,914.047z"/>
	<path fill="#1F2B39" stroke="#1F2B39" stroke-width="0.5" d="M242.219,889.901c0.721,1.451,1.113,3.035,0.997,4.682
		c-0.142,5.963-0.205,11.935-0.374,17.907c0.116,1.424-0.676,2.626-1.433,3.765C241.756,907.479,241.186,898.614,242.219,889.901z"
		/>
	<path fill="#195983" stroke="#195983" stroke-width="0.5" d="M951.688,892.847c16.234,14.774,31.365,30.733,47.483,45.65
		c13.253,13.181,27.707,25.099,40.612,38.645c1.673,1.718,3.489,3.435,4.352,5.758c-3.551-1.299-5.643-4.69-8.429-7.031
		c-6.008-5.278-11.606-10.992-17.578-16.288c-4.94-4.219-9.247-9.114-14.258-13.244c-17.792-16.822-35.966-33.243-53.589-50.251
		C950.745,895.001,951.217,893.924,951.688,892.847z"/>
	<path fill="#20577D" stroke="#20577D" stroke-width="0.5" d="M940.332,907.559c2.261-3.106,4.655-6.141,7.619-8.616
		c-1.264,3.062-3.275,5.714-5.135,8.429c-9.506,14.81-19.056,29.594-28.632,44.35c-1.023,1.504-0.97,3.391-1.015,5.153
		c-0.071,17.605,0.739,35.192,0.668,52.788c-1.202-2.928-1.593-6.07-1.825-9.185c-0.409-5.714-3.088-11.045-3.044-16.813
		c0.062-10.707,0.009-21.414,0.009-32.112c-0.125-2.296,1.7-3.952,2.839-5.732c4.86-7.04,9.532-14.214,14.347-21.29
		C930.328,918.418,935.979,913.522,940.332,907.559z"/>
	<path fill="#1D5980" stroke="#1D5980" stroke-width="0.5" d="M914.147,1011.942c6.56,12.158,13.003,24.387,19.599,36.536
		c2.599,4.664,3.151,10.075,4.361,15.202c3.854,18.842,8.473,37.533,12.042,56.437c2.394,23.007,4.45,46.059,6.613,69.084
		c0.196,23.826,0.16,47.661,0.053,71.478c-2.181-6.079-2.634-12.621-3.791-18.931c-0.498-17.089,0.071-34.222-0.267-51.31
		c-0.142-0.258-0.436-0.756-0.579-1.015l-0.489-0.641c-0.142-2.332-0.267-4.673-0.721-6.951c-1.593-6.96-0.97-14.187-2.332-21.183
		c-3.026-23.969-5.954-47.937-9.114-71.888c-2.252-10.155-4.468-20.319-6.88-30.43c-1.896-10.12-7.868-18.744-11.873-28.063
		C918.33,1024.233,913.568,1018.831,914.147,1011.942z"/>
	<path fill="#1F2B39" stroke="#1F2B39" stroke-width="0.5" d="M356.953,1182.107c2.074,4.771,2.955,9.968,4.504,14.926
		c3.071,11.464,5.945,22.98,9.265,34.373c1.878,8.349,4.815,16.448,6.212,24.912c3.284,22.749,6.711,45.472,10.084,68.212
		c1.291,8.224,0.846,16.581,1.655,24.85c0.258,13.974,1.184,27.92,1.914,41.876c0.089,10.387,0.819,20.764,2.109,31.08
		c2.181,20.204,4.646,40.381,6.818,60.593c0.498,3.8,1.121,7.636,0.694,11.49c-5.438,8.393-10.209,17.24-16.083,25.348
		c-0.917-8.01,1.095-16.056,0-24.058c-2.029-11.971-3.854-23.968-5.91-35.922c-2.359-18.148-4.441-36.322-6.791-54.461
		c-1.38-14.783-2.804-29.567-4.05-44.359c-0.694-10.769-2.732-21.379-4.21-32.05c-0.623-5.598-2.216-11.152-1.602-16.813
		c1.638-17.712,3.071-35.432,4.637-53.135c0.338-5.928-1.157-11.74-1.762-17.587
		C362.008,1221.615,358.795,1201.937,356.953,1182.107z"/>
	<path fill="#BA4B5C" stroke="#BA4B5C" stroke-width="0.5" d="M951.688,1188.782l0.489,0.641c0.294,8.233-0.249,16.474-0.098,24.716
		c-0.267,8.963,0.543,17.961-0.178,26.906c-0.472-1.193-0.757-2.43-0.748-3.685c-0.552-12.176-0.748-24.387-0.053-36.553
		C951.19,1196.783,950.852,1192.734,951.688,1188.782z"/>
	<path fill="#922C34" stroke="#922C34" stroke-width="0.5" d="M940.705,1297.704c2.884-5.963,5.483-12.104,9.007-17.721
		c-3.204,10.235-8.393,19.723-12.211,29.736c-7.254,16.43-14.08,33.047-21.468,49.414l-0.436-0.57
		c-3.507,6.115-5.696,12.888-8.687,19.269c-2.608,6.23-5.545,12.327-8.144,18.575c-0.498,0.917-0.57,1.985-0.374,3.035
		c-2.955,7.806-6.898,15.193-10.307,22.811c-13.724,29.371-27.288,58.804-40.763,88.291c-3.996,7.957-6.978,16.412-11.508,24.102
		c1.095-6.684,3.587-13.012,5.42-19.501c2.172-8.037,4.966-15.887,7.191-23.897c2.038-8.384,6.791-15.7,10.324-23.479
		c3.685-8.144,7.841-16.065,11.508-24.218C893.908,1395.02,917.146,1346.291,940.705,1297.704z"/>
	<path fill="#C6595F" stroke="#C6595F" stroke-width="0.5" d="M906.911,1377.833c2.99-6.382,5.18-13.155,8.687-19.269l0.436,0.57
		c-6.061,13.35-11.544,26.968-17.64,40.309c-0.196-1.05-0.125-2.118,0.374-3.035C901.366,1390.16,904.303,1384.063,906.911,1377.833
		z"/>
	<path fill="#C5C9CC" stroke="#C5C9CC" stroke-width="0.5" d="M1658.257,1383.378l0.587,0.187
		c0.045,51.462,0.116,102.95-0.036,154.42l-0.543-0.231C1658.203,1486.292,1658.23,1434.831,1658.257,1383.378z"/>
	<path fill="#1F2B39" stroke="#1F2B39" stroke-width="0.5" d="M1368.071,1568.923c1.549,2.51,0.988,5.536,1.032,8.357
		c-0.142,10.591-0.214,21.174-0.392,31.765c-0.391-0.133-1.166-0.418-1.549-0.561
		C1367.519,1595.294,1367.573,1582.104,1368.071,1568.923z"/>
	<path fill="#FDFFFF" stroke="#FDFFFF" stroke-width="0.5" d="M397.44,1617.892c1.166-8.865,1.638-17.827,2.964-26.648
		c0.24,22.634,0.062,45.276,0.116,67.909h-7.387C394.245,1645.367,396.096,1631.652,397.44,1617.892z"/>
</g>
</svg>
