<svg xmlns="http://www.w3.org/2000/svg" width="31.5" height="36" viewBox="0 0 31.5 36">
  <path id="Icon_awesome-user-nurse" data-name="Icon awesome-user-nurse" d="M4.063,20.25H9.854a8.851,8.851,0,0,0,11.793,0h5.791a1.125,1.125,0,0,0,1-1.63A47.521,47.521,0,0,1,25.478,11.9a16.318,16.318,0,0,1-.728-5.068V3.375L15.75,0l-9,3.375V6.834A16.3,16.3,0,0,1,6.024,11.9,47.58,47.58,0,0,1,3.059,18.62a1.125,1.125,0,0,0,1,1.63ZM12.938,5.039a.352.352,0,0,1,.352-.352h1.524V3.164a.352.352,0,0,1,.352-.352h1.171a.352.352,0,0,1,.352.352V4.688h1.524a.352.352,0,0,1,.352.352V6.211a.352.352,0,0,1-.352.352H16.687V8.086a.352.352,0,0,1-.352.352H15.164a.352.352,0,0,1-.352-.352V6.562H13.289a.352.352,0,0,1-.352-.352ZM10.125,11.25h11.25V13.5a5.625,5.625,0,1,1-11.25,0ZM22.459,22.5,15.75,29.207,9.041,22.5A9.429,9.429,0,0,0,0,31.907,4.093,4.093,0,0,0,4.093,36H27.407A4.093,4.093,0,0,0,31.5,31.907,9.429,9.429,0,0,0,22.459,22.5Z" fill="rgba(255,255,255,0.8)"/>
</svg>
