<svg xmlns="http://www.w3.org/2000/svg" viewBox="0 0 109.45 77.36"><defs><style>.cls-1{fill:#231f20;}.cls-2{fill:#f04c23;}.cls-3{fill:#4272b8;}</style></defs><g id="Layer_2" data-name="Layer 2"><g id="Options"><path class="cls-1" d="M101.59,34.93c-1,4.23-3.69,9.19-8.08,10.64a10.41,10.41,0,0,1-10.24-2.4A14.61,14.61,0,0,1,79.46,36c-.1-.39-.18-.78-.25-1.18,0-.13,0-.26-.07-.4-.07-.38,0,.37,0,0l-.06-.91a63.91,63.91,0,0,0-1-7.67A45.83,45.83,0,0,0,74.64,15a22,22,0,0,0-7.78-9.17A32.12,32.12,0,0,0,51.9.08a28.8,28.8,0,0,0-12.27,2,25,25,0,0,0-8.37,4.73c-3.35,3-5.77,6.94-7.81,10.89-1.34,2.56-2.51,5.18-4,7.64A66.32,66.32,0,0,1,15,31.5c-3,3.72-6.22,7.2-9.14,11-2.37,3-4.73,6.46-5.45,10.34-1,5.32-.14,11.32,1.32,16.48a24.91,24.91,0,0,0,2.31,5.8c.6,1,1.38,2.09,2.62,2.21,1.77.17,3.63,0,5.4,0H31a1.55,1.55,0,0,0,1.45-1.1c.72-2.39,2.13-5.89,4.6-7.1,2-1,4.53,1.11,5.59,2.75a4,4,0,0,1,.61,1.47,8.25,8.25,0,0,1,0,.85,5,5,0,0,1-.23.86c.09-.27.08-.16,0,0a1.51,1.51,0,0,0,1.29,2.26h14.4a1.52,1.52,0,0,0,1.5-1.5L60.74,55l.07-2.94a1.56,1.56,0,0,0-1.1-1.45A68.89,68.89,0,0,1,53.13,48,53.39,53.39,0,0,1,40.87,40.7a18.65,18.65,0,0,1-4.31-4.85,7.47,7.47,0,0,1-1-5.05c.55-2.85,2.73-4.95,4.65-7,2.29-2.4,4.8-5,7.85-6.47a5,5,0,0,1,2.74-.57,1.14,1.14,0,0,1,.4.08c.21.06.42.12.63.2a4.61,4.61,0,0,0,.44.22,5.87,5.87,0,0,1,.59.37,34.43,34.43,0,0,1,4.89,4.79c1.34,1.4,3.46-.73,2.12-2.12C56.9,17.26,53.77,13.05,49,13.91c-2.91.53-5.46,2.63-7.6,4.55a66.45,66.45,0,0,0-5.2,5.28,16.09,16.09,0,0,0-2.64,3.7c-5,10.4,8.16,18.28,15.81,22.05a79.3,79.3,0,0,0,9.57,4l-1.1-1.44-.47,20.78-.07,3,1.5-1.5H44.37l1.3,2.26c2.33-4-1.45-8.54-5-10.15-4.35-2-7.79,1.73-9.6,5.32a23.07,23.07,0,0,0-1.52,3.67L31,74.29H8.63a10.05,10.05,0,0,0-1.9,0s-.1,0-.11,0c.41-.43,1.08.7.45-.08a10.42,10.42,0,0,1-1-1.71,35.94,35.94,0,0,1-3-15.25A16.68,16.68,0,0,1,4,51.1a23.55,23.55,0,0,1,2.81-5c2.61-3.72,5.76-7,8.66-10.53A66.86,66.86,0,0,0,24.09,23.2C27.76,16,31.36,8.54,39.35,5.4A28.67,28.67,0,0,1,50.73,3c5.32.18,10.26,2.5,14.61,5.41,6.37,4.27,8.74,12,10,19.26.57,3.2.49,6.54,1.35,9.68C78.55,44.11,84.11,49.61,91.53,49c6.54-.55,10.69-6.13,12.58-12,.14-.43.28-.87.38-1.31.42-1.88-2.47-2.68-2.9-.8Z"/><g id="cross"><rect class="cls-2" x="18.46" y="45.16" width="6.81" height="19.94" rx="3.4"/><rect class="cls-2" x="18.46" y="45.16" width="6.81" height="19.94" rx="3.4" transform="translate(77 33.27) rotate(90)"/></g><circle class="cls-1" cx="62.77" cy="34.17" r="2.78"/><path class="cls-3" d="M84.68,21.41S83.31,9.05,90,9.28s6.94,5.3,6.94,5.3v7.63S84.8,24.11,84.68,21.41Z"/><path class="cls-1" d="M90.82,36a5.2,5.2,0,0,1-5.14-5.2c0-1.28,0-2.56,0-3.84,0-3.74,0-7.49,0-11.24a5.27,5.27,0,0,1,3.88-5.3,5.18,5.18,0,0,1,6.39,5c.09,3.23,0,6.47,0,9.71,0,1.81,0,3.62,0,5.43A5.25,5.25,0,0,1,90.82,36a1,1,0,0,0,0,2,7.23,7.23,0,0,0,7.06-6.18A34.22,34.22,0,0,0,98,27.24c0-4,.11-7.93,0-11.89a7.14,7.14,0,0,0-13.9-2.27,15.66,15.66,0,0,0-.37,5v7.55c0,1.72,0,3.44,0,5.16A7.24,7.24,0,0,0,90.82,38,1,1,0,0,0,90.82,36Z"/><path class="cls-1" d="M97,22.08,86.23,22H84.68a1,1,0,0,0,0,2l10.73.07H97a1,1,0,0,0,0-2Z"/><text/></g></g></svg>