<svg xmlns="http://www.w3.org/2000/svg" width="30" height="30" viewBox="0 0 30 30">
  <g id="Icon_material-sentiment-satisfied" data-name="Icon material-sentiment-satisfied" transform="translate(-73 -35)" opacity="0.7">
    <path id="Path_993" data-name="Path 993" d="M25.5,14.25A2.25,2.25,0,1,1,23.25,12,2.25,2.25,0,0,1,25.5,14.25Z" transform="translate(70 32)"/>
    <path id="Path_994" data-name="Path 994" d="M15,14.25A2.25,2.25,0,1,1,12.75,12,2.25,2.25,0,0,1,15,14.25Z" transform="translate(70 32)"/>
    <path id="Path_995" data-name="Path 995" d="M17.985,3A15,15,0,1,0,33,18,14.993,14.993,0,0,0,17.985,3ZM18,30A12,12,0,1,1,30,18,12,12,0,0,1,18,30Zm0-6a6,6,0,0,1-5.175-3H10.32a8.242,8.242,0,0,0,15.36,0H23.175A6,6,0,0,1,18,24Z" transform="translate(70 32)"/>
  </g>
</svg>
