<svg xmlns="http://www.w3.org/2000/svg" width="30" height="30" viewBox="0 0 30 30">
  <g id="Icon_material-sentiment-dissatisfied" data-name="Icon material-sentiment-dissatisfied" transform="translate(-3 -3)" opacity="0.7">
    <path id="Path_990" data-name="Path 990" fill="#707070" stroke="#707070" d="M25.5,14.25A2.25,2.25,0,1,1,23.25,12,2.25,2.25,0,0,1,25.5,14.25Z"/>
    <path id="Path_991" data-name="Path 991" fill="#707070" stroke="#707070" d="M15,14.25A2.25,2.25,0,1,1,12.75,12,2.25,2.25,0,0,1,15,14.25Z"/>
    <path id="Path_992" data-name="Path 992" fill="#707070" stroke="#707070" d="M17.985,3A15,15,0,1,0,33,18,14.993,14.993,0,0,0,17.985,3ZM18,30A12,12,0,1,1,30,18,12,12,0,0,1,18,30Zm0-9a8.243,8.243,0,0,0-7.68,5.25h2.505a5.963,5.963,0,0,1,10.35,0H25.68A8.243,8.243,0,0,0,18,21Z"/>
  </g>
</svg>
