<svg xmlns="http://www.w3.org/2000/svg" width="30" height="30" viewBox="0 0 30 30">
  <g id="Icon_material-sentiment-very-dissatisfied" data-name="Icon material-sentiment-very-dissatisfied" transform="translate(-73 -5)" opacity="0.7">
    <path id="Path_1004" data-name="Path 1004" d="M25.5,14.25A2.25,2.25,0,1,1,23.25,12,2.25,2.25,0,0,1,25.5,14.25Z" transform="translate(70 3)"/>
    <path id="Path_1005" data-name="Path 1005" d="M15,14.25A2.25,2.25,0,1,1,12.75,12,2.25,2.25,0,0,1,15,14.25Z" transform="translate(70 3)"/>
    <path id="Icon_material-sentiment-very-dissatisfied-2" data-name="Icon material-sentiment-very-dissatisfied" d="M17.985,3A15,15,0,1,0,33,18,14.983,14.983,0,0,0,17.985,3ZM18,30A12,12,0,1,1,30,18,12,12,0,0,1,18,30Zm0-9a8.244,8.244,0,0,0-7.665,5.25h15.33A8.244,8.244,0,0,0,18,21Z" transform="translate(70 2)"/>
  </g>
</svg>
